# xmcd CD database file
#
# Track frame offsets:
#	150
#	10700
#	15175
#	28162
#	35262
#	42650
#	52100
#	67625
#	76425
#	87900
#	97000
#	104695
#	112225
#	132362
#	143737
#	150700
#	160412
#	167937
#	183207
#	192995
#	209950
#
# Disc length: 2978 seconds
#
# Revision: 0
# Processed by: cddbd v1.5.1PL0 Copyright (c) Steve Scherf et al.
# Submitted via: CDex 1.50
#
DISCID=270ba015
DTITLE=宗次郎 - こころのうた・三 童
DYEAR=1991
DGENRE=New Age
TTITLE0=どこかで春が
TTITLE1=春よ来い
TTITLE2=春が来た
TTITLE3=靴が鳴る
TTITLE4=あの町この町
TTITLE5=背くらべ
TTITLE6=七つの子
TTITLE7=ゆりかごの唄
TTITLE8=おかあさん
TTITLE9=赤い靴
TTITLE10=かなりや
TTITLE11=しゃぼん玉
TTITLE12=月の砂漠
TTITLE13=みかんの花咲く丘
TTITLE14=青い眼の人形
TTITLE15=花嫁人形
TTITLE16=十五夜お月さん
TTITLE17=かやの木山
TTITLE18=砂山
TTITLE19=里の秋
TTITLE20=夕焼小焼
EXTD=YEAR: 1991
EXTT0=
EXTT1=
EXTT2=
EXTT3=
EXTT4=
EXTT5=
EXTT6=
EXTT7=
EXTT8=
EXTT9=
EXTT10=
EXTT11=
EXTT12=
EXTT13=
EXTT14=
EXTT15=
EXTT16=
EXTT17=
EXTT18=
EXTT19=
EXTT20=
PLAYORDER=
